Coordinates
version=1
nRows=19
nColumns=36
inDegrees=yes

Units are S.I. units (second, meters, Newtons, ...)
If the header above contains a line with 'inDegrees', this indicates whether rotational values are in degrees (yes) or radians (no).

endheader
time	pelvis_tilt	pelvis_list	pelvis_rotation	pelvis_tx	pelvis_ty	pelvis_tz	hip_flexion_r	hip_adduction_r	hip_rotation_r	knee_angle_r	knee_angle_r_beta	ankle_angle_r	subtalar_angle_r	mtp_angle_r	hip_flexion_l	hip_adduction_l	hip_rotation_l	knee_angle_l	knee_angle_l_beta	ankle_angle_l	subtalar_angle_l	mtp_angle_l	lumbar_extension	lumbar_bending	lumbar_rotation	arm_flex_r	arm_add_r	arm_rot_r	elbow_flex_r	pro_sup_r	arm_flex_l	arm_add_l	arm_rot_l	elbow_flex_l	pro_sup_l
      2.98750000	     -6.95459627	      0.54874310	      4.34587539	      0.03163022	      0.82439704	     -0.05492067	     58.85355509	     -8.53329164	     -1.69173398	     61.95933461	      1.08139439	      6.55501826	    -16.14104463	     -7.49999987	     58.02553720	     -7.34279756	      1.43119742	     66.86455611	      1.16700666	     11.56125126	     -0.81177313	     -7.49999987	    -20.88911276	     -2.76001142	     -5.81949153	     40.27874638	    -59.08147278	     18.60363994	     97.68299808	     79.99144917	     37.89875355	    -51.43732800	     -0.54674212	     91.29817326	     64.77834787
      2.99166670	     -6.43759617	      0.41619850	      4.26885259	      0.03614115	      0.81541836	     -0.05913417	     59.83265879	     -8.42340443	     -1.36212622	     64.89360154	      1.13260701	      7.57412481	    -17.41322723	     -7.49999987	     58.71480998	     -7.17110837	      2.15581470	     69.13913801	      1.20670560	     12.59048816	     -1.65332442	     -7.49999987	    -21.99146433	     -2.30402307	     -5.85645285	     40.58697215	    -59.16760331	     18.07574064	     96.74878967	     79.92642989	     37.84287036	    -51.27224560	     -0.96264354	     90.57151914	     64.75139303
      2.99583330	     -6.46891206	      0.09708778	      4.50371049	      0.04525350	      0.80872809	     -0.06059620	     60.64760169	     -8.22733913	     -1.21520326	     67.06699195	      1.17053983	      8.47436715	    -18.61803514	     -7.49999987	     59.79519310	     -7.09092173	      2.68698235	     71.34640593	      1.24522969	     13.51757682	     -2.12527839	     -7.49999987	    -21.88654137	     -1.41663910	     -6.05265630	     40.91528225	    -58.43566932	     17.77654326	     95.19376613	     80.01521547	     37.73770347	    -50.29988170	     -1.76357876	     88.03596127	     64.73730179
      3.00000000	     -6.38694103	     -0.07479204	      4.16992740	      0.04923661	      0.80599926	     -0.06518918	     61.14614635	     -7.99553438	     -1.00104043	     68.57052845	      1.19678149	      9.30309558	    -18.97992743	     -7.49999987	     60.18466538	     -7.12081502	      2.79659277	     72.85487631	      1.27155747	     14.41863951	     -2.78052803	     -7.49999987	    -22.66828959	     -0.91995709	     -5.64848860	     41.03910388	    -58.46538001	     17.45804337	     94.75133738	     80.03316959	     37.30536709	    -50.06936938	     -2.28191867	     87.27246430	     64.71441014
      3.00416670	     -6.60402631	     -0.46575380	      3.74390470	      0.05315775	      0.80225954	     -0.06976159	     61.52751695	     -7.80391213	     -0.96255640	     69.40979053	      1.21142938	     10.43215179	    -17.83282041	     -7.49999987	     60.66719550	     -7.15936334	      3.21049171	     73.82675184	      1.28851990	     15.25729937	     -3.65519485	     -7.49999987	    -23.13411875	     -0.22630246	     -5.04997749	     40.88929636	    -58.08463354	     16.90989945	     93.90882093	     80.06263390	     36.40156898	    -48.82286003	     -3.81232189	     86.27921358	     64.62822800
      3.00833330	     -7.00544876	     -0.64593677	      3.83430684	      0.05697265	      0.79573221	     -0.06541943	     62.17133245	     -7.75809789	     -0.88332277	     70.42142369	      1.22908571	     11.68072619	    -17.27602903	     -7.49999987	     61.41681395	     -7.17374302	      3.76274494	     74.76200829	      1.30484320	     16.02446810	     -3.50558225	     -7.49999987	    -23.52676816	     -0.04682868	     -5.22905878	     40.24229406	    -57.19354031	     15.98780521	     93.02993594	     80.04938441	     35.56608291	    -47.86947814	     -5.43835119	     86.06396481	     64.57597590
      3.01250000	     -7.37508932	     -0.84762370	      3.25463834	      0.05647490	      0.78834307	     -0.06504330	     63.37923753	     -7.09974528	     -0.55372737	     71.69967024	      1.25139532	     12.53271752	    -17.19205501	     -7.49999987	     62.41653074	     -7.65012792	      3.98405718	     76.24057423	      1.33064904	     17.31954620	     -3.77197617	     -7.49999987	    -24.02666217	     -0.00955014	     -5.19559403	     39.85156342	    -56.09018838	     14.97716224	     92.70173096	     80.16409931	     33.98912185	    -47.49646137	     -7.65958337	     86.56614661	     64.58542896
      3.01666670	     -7.44127468	     -0.91881243	      2.94053533	      0.06460840	      0.78297635	     -0.06567774	     64.00405996	     -6.75822153	     -0.31171278	     73.14288394	      1.27658415	     13.56222700	    -16.96048343	     -7.49999987	     62.67930981	     -7.90147886	      4.26943498	     77.32330669	      1.34954629	     18.56221878	     -3.91986371	     -7.49999987	    -24.34322368	     -0.07890330	     -4.99996655	     39.22027587	    -55.34666361	     14.85282741	     91.78148108	     80.16468613	     33.53100725	    -46.90362152	     -8.23112181	     86.13769510	     64.52172680
      3.02083330	     -8.02516902	     -0.78535231	      2.72706550	      0.05973494	      0.76869920	     -0.06051949	     65.98584277	     -6.71488165	     -0.16578929	     75.17287996	      1.31201426	     14.85863555	    -16.30120481	     -7.49999987	     64.24915785	     -8.07919390	      4.54346034	     79.17213219	      1.38181438	     20.24202872	     -3.26589510	     -7.49999987	    -24.25481431	     -0.34075105	     -5.02439283	     38.82457567	    -54.48553859	     14.21000722	     91.31594719	     80.49116931	     33.14830700	    -46.64971094	     -9.11839786	     85.72031109	     64.48053373
      3.02500000	     -7.95223504	     -0.73752181	      2.59853723	      0.06768100	      0.76262786	     -0.05981494	     66.99958544	     -6.39954882	      0.20417959	     77.22652637	      1.34785716	     15.63791257	    -16.65766915	     -7.49999987	     65.01121901	     -8.09053553	      4.96859223	     80.96654344	      1.41313277	     20.92026257	     -3.81101269	     -7.49999987	    -24.96295526	     -0.40887235	     -5.06815989	     38.75333946	    -54.11265579	     14.06174995	     91.28626168	     80.47913445	     33.07585825	    -46.63496131	     -9.31143112	     85.20652889	     64.43363238
      3.02916670	     -8.54698986	     -0.32063477	      2.44625686	      0.06767386	      0.75482752	     -0.05974992	     68.90204718	     -6.38249294	      0.74263223	     79.26726238	      1.38347472	     16.61551884	    -16.63794626	     -7.49999987	     66.50289802	     -7.59493993	      5.25764433	     82.88447806	      1.44660704	     21.76558891	     -4.16109716	     -7.49999987	    -24.57518252	     -0.89937776	     -5.39389045	     38.26157138	    -53.22138521	     13.94311306	     90.86318273	     80.47338723	     32.91921517	    -46.37440482	     -9.52734056	     84.06635047	     64.23978808
      3.03333330	     -8.43189335	     -0.09260253	      2.21256618	      0.06816316	      0.75189483	     -0.05941850	     69.68198872	     -6.07522469	      1.36810601	     80.70446394	      1.40855862	     17.15934785	    -16.75148364	     -7.49999987	     66.88009714	     -7.12701752	      5.87625770	     84.01962223	      1.46641904	     22.04575930	     -4.98314421	     -7.49999987	    -25.17453126	     -1.18623934	     -5.64593567	     37.77664584	    -52.47768271	     13.75851374	     89.99919945	     80.33668251	     33.03453048	    -46.31720364	     -9.92158140	     83.44792493	     64.07312386
      3.03750000	     -8.47837836	      0.07233404	      2.13453746	      0.07333115	      0.74839512	     -0.05486791	     70.29567634	     -5.58733222	      1.90762202	     82.01761020	      1.43147734	     17.81046207	    -17.17219091	     -7.49999987	     67.31884942	     -6.94917976	      6.35052117	     85.04363467	      1.48429143	     22.07057076	     -5.07074562	     -7.49999987	    -25.60159550	     -1.32964269	     -6.09082252	     37.21440812	    -51.29551342	     13.21697403	     89.16448017	     80.29239135	     32.87784350	    -46.35853673	    -10.07601321	     82.56153715	     63.90178531
      3.04166670	     -8.33897425	      0.31598356	      2.12672317	      0.07355991	      0.74537204	     -0.05458413	     70.75768103	     -5.39104725	      2.20416244	     83.04135370	      1.44934504	     17.88462645	    -17.89822389	     -7.49999987	     67.42860156	     -6.73404062	      6.59369301	     85.66955493	      1.49521580	     22.08148807	     -5.29929039	     -7.49999987	    -26.17351539	     -1.61643828	     -6.40260846	     36.94038900	    -49.84575297	     12.67208081	     88.12532317	     80.08121033	     32.95115603	    -46.09306515	     -9.92092597	     81.29796430	     63.59389652
      3.04583330	     -8.25329967	      0.35983084	      2.21008998	      0.07384733	      0.73838933	     -0.05480950	     71.27610422	     -5.35927295	      2.27581867	     84.02483224	      1.46650998	     17.95706342	    -18.30387345	     -7.49999987	     67.99302102	     -6.72851897	      6.66155204	     86.50013486	      1.50971216	     22.06020651	     -5.25315970	     -7.49999987	    -26.70038013	     -1.68711440	     -6.66435276	     36.88104899	    -48.77070940	     12.73241331	     87.23664025	     79.51087342	     33.87978255	    -46.18900845	     -8.69094610	     80.00988841	     63.28534636
      3.05000000	     -8.45321781	      0.49207246	      2.34260113	      0.07800728	      0.73153719	     -0.04931984	     71.94175671	     -5.24844601	      2.36082349	     84.97455045	      1.48308569	     18.39600075	    -18.81897125	     -7.49999987	     68.58062725	     -6.99510780	      6.49157864	     87.32249478	      1.52406505	     22.58176136	     -4.53613713	     -7.49999987	    -26.71054018	     -2.03129983	     -6.99739951	     36.83542280	    -47.81367089	     13.48929935	     86.11929839	     79.99389996	     34.99104780	    -46.41786980	     -7.37469978	     78.06651562	     62.75633290
      3.05416670	     -8.80741541	      0.51772047	      2.82214582	      0.08228300	      0.72817020	     -0.04540133	     72.60872446	     -5.13799246	      2.42738631	     85.98006603	      1.50063524	     18.75693608	    -19.87416408	     -7.49999987	     69.14079876	     -7.17576565	      6.49500611	     87.82053425	      1.53275747	     23.27502201	     -3.91879739	     -7.49999987	    -26.95790959	     -2.21783636	     -7.74652103	     36.42117621	    -46.53666134	     13.46442569	     86.22529693	     80.04397903	     35.45667305	    -46.86906525	     -6.92416684	     76.92402083	     62.58551691
      3.05833330	     -9.43147262	      0.37373883	      2.99156571	      0.08603852	      0.71781182	     -0.05097629	     73.71222459	     -5.18014558	      2.25392714	     87.32620407	      1.52412978	     19.48479812	    -19.99852172	     -7.49999987	     70.48631995	     -7.13479466	      6.76723775	     89.18892865	      1.55664046	     24.17139766	     -3.73097724	     -7.49999987	    -26.55886788	     -2.25550485	     -7.70637525	     35.57159131	    -45.75365247	     12.90618430	     85.39898571	     80.79440399	     36.15948221	    -46.62436174	     -5.48577175	     75.48843029	     61.84900664
      3.06250000	    -10.15653119	      0.03843845	      3.30795006	      0.08569995	      0.70664637	     -0.05107785	     75.22234099	     -5.48207146	      1.99847017	     88.72880082	      1.54860972	     20.16801181	    -20.02578220	     -7.49999987	     72.40854111	     -7.16547702	      7.20185963	     90.89905744	      1.58648784	     24.99961071	     -3.34423156	     -7.49999987	    -26.46052591	     -1.89842403	     -7.80924811	     35.21213067	    -45.09255266	     12.36999479	     84.87939491	     80.45322963	     36.44156960	    -46.67420669	     -5.01940547	     75.43712561	     61.62856851
